<svg xmlns="http://www.w3.org/2000/svg" viewBox="0 -1522 10503 1552"><!-- DRAFT: outlined from GT Maru Mono Bold TRIAL. Not for production until the font is licensed. Mark height = b ascender + 4%; gap = seed diameter. --><g transform="translate(-240.1 -1889.1) scale(34.9628)"><path fill="currentColor" d="M 32.866 10.5 L 57.133 52.532 A 1 1 0 0 1 56.267 54.032 L 7.733 54.032 A 1 1 0 0 1 6.867 52.532 L 31.134 10.5 A 1 1 0 0 1 32.866 10.5 Z"/><circle cx="32" cy="39.0217" r="6" style="fill:var(--color--primary)"/></g><path fill="currentColor" d="M2773.992832858587 30C2955.992832858587 30 3107.992832858587 -32 3196.992832858587 -122C3257.992832858587 -183 3292.992832858587 -259 3292.992832858587 -312C3292.992832858587 -387 3231.992832858587 -442 3160.992832858587 -442C3101.992832858587 -442 3064.992832858587 -421 3024.992832858587 -369C2972.992832858587 -295 2897.992832858587 -245 2782.992832858587 -245C2614.992832858587 -245 2485.992832858587 -369 2485.992832858587 -550C2485.992832858587 -731 2614.992832858587 -855 2782.992832858587 -855C2886.992832858587 -855 2966.992832858587 -810 3015.992832858587 -743C3062.992832858587 -691 3102.992832858587 -666 3163.992832858587 -666C3236.992832858587 -666 3289.992832858587 -721 3289.992832858587 -794C3289.992832858587 -853 3254.992832858587 -926 3194.992832858587 -986C3107.992832858587 -1073 2966.992832858587 -1130 2773.992832858587 -1130C2431.992832858587 -1130 2176.992832858587 -890 2176.992832858587 -550C2176.992832858587 -210 2431.992832858587 30 2773.992832858587 30ZM4030.992832858587 29C4169.992832858587 29 4288.992832858587 -18 4368.992832858587 -101C4416.992832858587 -22 4498.992832858587 24 4600.992832858587 24C4681.992832858587 24 4766.992832858587 -16 4811.992832858587 -73C4846.992832858587 -116 4862.992832858587 -157 4862.992832858587 -208C4862.992832858587 -265 4827.992832858587 -309 4779.992832858587 -309C4756.992832858587 -309 4741.992832858587 -302 4722.992832858587 -285C4707.992832858587 -271 4692.992832858587 -262 4670.992832858587 -262C4634.992832858587 -262 4622.992832858587 -287 4622.992832858587 -316V-743C4622.992832858587 -998 4450.992832858587 -1130 4159.992832858587 -1130C3959.992832858587 -1130 3788.992832858587 -1064 3683.992832858587 -947C3645.992832858587 -905 3626.992832858587 -860 3626.992832858587 -815C3626.992832858587 -748 3677.992832858587 -704 3749.992832858587 -704C3794.992832858587 -704 3829.992832858587 -723 3889.992832858587 -769C3962.992832858587 -831 4060.992832858587 -872 4153.992832858587 -872C4256.992832858587 -872 4318.992832858587 -832 4318.992832858587 -766C4318.992832858587 -719 4292.992832858587 -694 4216.992832858587 -678L3953.992832858587 -620C3737.992832858587 -573 3631.992832858587 -465 3631.992832858587 -294C3631.992832858587 -100 3791.992832858587 29 4030.992832858587 29ZM3952.992832858587 -318C3952.992832858587 -380 4003.992832858587 -423 4103.992832858587 -443L4214.992832858587 -465C4260.992832858587 -475 4295.992832858587 -489 4319.992832858587 -508V-383C4319.992832858587 -284 4230.992832858587 -211 4110.992832858587 -211C4015.992832858587 -211 3952.992832858587 -254 3952.992832858587 -318ZM5635.992832858587 30C5975.992832858587 30 6182.992832858587 -110 6182.992832858587 -340C6182.992832858587 -513 6060.992832858587 -622 5810.992832858587 -666L5596.992832858587 -703C5485.992832858587 -722 5428.992832858587 -754 5428.992832858587 -804C5428.992832858587 -858 5502.992832858587 -891 5624.992832858587 -891C5724.992832858587 -891 5810.992832858587 -862 5880.992832858587 -819C5944.992832858587 -779 5991.992832858587 -746 6041.992832858587 -746C6112.992832858587 -746 6163.992832858587 -795 6163.992832858587 -861C6163.992832858587 -922 6118.992832858587 -984 6041.992832858587 -1032C5945.992832858587 -1092 5803.992832858587 -1130 5632.992832858587 -1130C5311.992832858587 -1130 5112.992832858587 -997 5112.992832858587 -783C5112.992832858587 -614 5247.992832858587 -499 5497.992832858587 -456L5699.992832858587 -421C5806.992832858587 -403 5865.992832858587 -371 5865.992832858587 -312C5865.992832858587 -252 5790.992832858587 -218 5658.992832858587 -218C5529.992832858587 -218 5435.992832858587 -256 5345.992832858587 -320C5283.992832858587 -364 5240.992832858587 -386 5191.992832858587 -386C5118.992832858587 -386 5068.992832858587 -339 5068.992832858587 -267C5068.992832858587 -218 5100.992832858587 -180 5148.992832858587 -135C5254.992832858587 -32 5436.992832858587 30 5635.992832858587 30ZM6910.992832858587 29C7049.992832858587 29 7168.992832858587 -18 7248.992832858587 -101C7296.992832858587 -22 7378.992832858587 24 7480.992832858587 24C7561.992832858587 24 7646.992832858587 -16 7691.992832858587 -73C7726.992832858587 -116 7742.992832858587 -157 7742.992832858587 -208C7742.992832858587 -265 7707.992832858587 -309 7659.992832858587 -309C7636.992832858587 -309 7621.992832858587 -302 7602.992832858587 -285C7587.992832858587 -271 7572.992832858587 -262 7550.992832858587 -262C7514.992832858587 -262 7502.992832858587 -287 7502.992832858587 -316V-743C7502.992832858587 -998 7330.992832858587 -1130 7039.992832858587 -1130C6839.992832858587 -1130 6668.992832858587 -1064 6563.992832858587 -947C6525.992832858587 -905 6506.992832858587 -860 6506.992832858587 -815C6506.992832858587 -748 6557.992832858587 -704 6629.992832858587 -704C6674.992832858587 -704 6709.992832858587 -723 6769.992832858587 -769C6842.992832858587 -831 6940.992832858587 -872 7033.992832858587 -872C7136.992832858587 -872 7198.992832858587 -832 7198.992832858587 -766C7198.992832858587 -719 7172.992832858587 -694 7096.992832858587 -678L6833.992832858587 -620C6617.992832858587 -573 6511.992832858587 -465 6511.992832858587 -294C6511.992832858587 -100 6671.992832858587 29 6910.992832858587 29ZM6832.992832858587 -318C6832.992832858587 -380 6883.992832858587 -423 6983.992832858587 -443L7094.992832858587 -465C7140.992832858587 -475 7175.992832858587 -489 7199.992832858587 -508V-383C7199.992832858587 -284 7110.992832858587 -211 6990.992832858587 -211C6895.992832858587 -211 6832.992832858587 -254 6832.992832858587 -318ZM8578.992832858587 30C8880.992832858587 30 9110.992832858587 -202 9110.992832858587 -550C9110.992832858587 -898 8880.992832858587 -1130 8578.992832858587 -1130C8444.992832858587 -1130 8330.992832858587 -1085 8253.992832858587 -1001V-1308C8253.992832858587 -1400 8192.992832858587 -1464 8104.992832858587 -1464C8016.992832858587 -1464 7954.992832858587 -1400 7954.992832858587 -1308V-132C7954.992832858587 -40 8016.992832858587 24 8104.992832858587 24C8180.992832858587 24 8235.992832858587 -23 8249.992832858587 -95C8330.992832858587 -8 8439.992832858587 30 8578.992832858587 30ZM8248.992832858587 -550C8248.992832858587 -724 8360.992832858587 -855 8525.992832858587 -855C8682.992832858587 -855 8802.992832858587 -735 8802.992832858587 -550C8802.992832858587 -365 8682.992832858587 -245 8525.992832858587 -245C8360.992832858587 -245 8248.992832858587 -376 8248.992832858587 -550ZM9992.992832858587 29C10174.992832858587 29 10354.992832858587 -34 10435.992832858587 -144C10458.992832858587 -175 10475.992832858587 -211 10475.992832858587 -247C10475.992832858587 -320 10439.992832858587 -365 10363.992832858587 -365C10316.992832858587 -365 10277.992832858587 -346 10236.992832858587 -320C10179.992832858587 -273 10107.992832858587 -246 10006.992832858587 -246C9832.992832858587 -246 9705.992832858587 -327 9686.992832858587 -459H10345.992832858587C10452.992832858587 -459 10502.992832858587 -511 10502.992832858587 -627C10502.992832858587 -919 10277.992832858587 -1130 9959.992832858587 -1130C9623.992832858587 -1130 9387.992832858587 -892 9387.992832858587 -548C9387.992832858587 -197 9627.992832858587 29 9992.992832858587 29ZM9686.992832858587 -689C9706.992832858587 -812 9804.992832858587 -893 9947.992832858587 -893C10092.992832858587 -893 10185.992832858587 -812 10206.992832858587 -689Z"/></svg>